<!-- Generated by IcoMoon.io -->
<svg version="1.1" xmlns="http://www.w3.org/2000/svg" width="1024" height="1024" viewBox="0 0 1024 1024">
<title>manual-checkbox</title>
<g id="icomoon-ignore">
</g>
<path fill="#404bbf" d="M128 40h768c48.601 0 88 39.399 88 88v768c0 48.601-39.399 88-88 88h-768c-48.601 0-88-39.399-88-88v-768c0-48.601 39.399-88 88-88z"></path>
<path fill="#f4f4fd" d="M732.544 272.32c10.543-10.195 24.925-16.477 40.774-16.477 32.108 0 58.193 25.784 58.681 57.776l0.001 0.046c0.012 0.452 0.019 0.983 0.019 1.517 0 15.439-5.891 29.503-15.548 40.065l0.041-0.045-313.216 393.856c-10.799 11.64-26.179 18.9-43.254 18.9-7.913 0-15.461-1.559-22.355-4.387l0.393 0.143c-7.632-3.153-14.143-7.569-19.58-13.052l-0.004-0.004-207.744-208.832c-11.586-10.835-18.807-26.214-18.807-43.279 0-8.023 1.596-15.673 4.487-22.65l-0.144 0.393c9.023-21.879 30.186-36.997 54.879-36.997 0.282 0 0.563 0.002 0.844 0.006h-0.042c16.605 0.31 31.477 7.477 41.949 18.778l0.035 0.038 164.416 165.248 272.64-349.312c0.516-0.626 1.040-1.19 1.593-1.722l-0.057-0.006z"></path>
<path fill="none" stroke="#404bbf" stroke-linejoin="miter" stroke-linecap="butt" stroke-miterlimit="4" stroke-width="80" d="M128 40h768c48.601 0 88 39.399 88 88v768c0 48.601-39.399 88-88 88h-768c-48.601 0-88-39.399-88-88v-768c0-48.601 39.399-88 88-88z"></path>
</svg>
