<svg xmlns="http://www.w3.org/2000/svg" width="1024" height="1024">
  <path fill="#404bbf" d="M128 40h768c48.601 0 88 39.399 88 88v768c0 48.601-39.399 88-88 88H128c-48.601 0-88-39.399-88-88V128c0-48.601 39.399-88 88-88z"/>
  <path fill="#f4f4fd" d="M732.544 272.32c10.543-10.195 24.925-16.477 40.774-16.477 32.108 0 58.193 25.784 58.681 57.776l.001.046c.012.452.019.983.019 1.517 0 15.439-5.891 29.503-15.548 40.065l.041-.045-313.216 393.856c-10.799 11.64-26.179 18.9-43.254 18.9a58.767 58.767 0 0 1-22.355-4.387l.393.143c-7.632-3.153-14.143-7.569-19.58-13.052l-.004-.004-207.744-208.832c-11.586-10.835-18.807-26.214-18.807-43.279a59.033 59.033 0 0 1 4.487-22.65l-.144.393c9.023-21.879 30.186-36.997 54.879-36.997.282 0 .563.002.844.006h-.042c16.605.31 31.477 7.477 41.949 18.778l.035.038 164.416 165.248 272.64-349.312c.516-.626 1.04-1.19 1.593-1.722l-.057-.006z"/>
  <path fill="none" stroke="#404bbf" stroke-width="80" d="M128 40h768c48.601 0 88 39.399 88 88v768c0 48.601-39.399 88-88 88H128c-48.601 0-88-39.399-88-88V128c0-48.601 39.399-88 88-88z"/>
</svg>
